<svg xmlns="http://www.w3.org/2000/svg"  viewBox="0 0 80 80" width="160px" height="160px"><path fill="#a65a9d" d="M34,77.5c-0.994,0-1.942-0.424-2.603-1.162L1.78,43.297c-1.711-1.897-1.708-4.76,0.007-6.66	L31.396,3.604C32.024,2.902,32.973,2.5,34,2.5s1.976,0.402,2.603,1.103L66.22,36.644c1.711,1.897,1.708,4.76-0.007,6.66	L36.604,76.337C35.942,77.076,34.994,77.5,34,77.5z"/><path fill="#753271" d="M34,3c0.885,0,1.698,0.341,2.231,0.937l29.618,33.042c1.538,1.706,1.534,4.281-0.01,5.993	L36.231,76.004C35.664,76.637,34.851,77,34,77s-1.664-0.363-2.231-0.997L2.151,42.962c-1.538-1.706-1.534-4.281,0.01-5.993	L31.769,3.937C32.302,3.341,33.115,3,34,3 M34,2c-1.109,0-2.218,0.423-2.976,1.27L1.416,36.301c-1.886,2.091-1.886,5.246-0.008,7.33	l29.616,33.04C31.782,77.517,32.863,78,34,78s2.218-0.483,2.976-1.329l29.608-33.032c1.886-2.091,1.886-5.246,0.008-7.33	L36.976,3.27C36.218,2.423,35.109,2,34,2L34,2z"/><path fill="#ff92be" d="M45.996,77.5c-0.993,0-1.942-0.424-2.604-1.162l-13.5-15.045c-1.197-1.333-1.197-3.343,0-4.676	l12.646-14.094c1.29-1.438,1.289-3.609-0.002-5.049L29.892,23.383c-1.197-1.333-1.197-3.343,0-4.676l13.5-15.045	C44.054,2.924,45.003,2.5,45.996,2.5s1.942,0.424,2.604,1.162l29.621,33.014c1.702,1.896,1.702,4.755-0.002,6.65L48.601,76.338	C47.938,77.076,46.989,77.5,45.996,77.5z"/><path fill="#ea4c89" d="M45.996,3c0.851,0,1.665,0.363,2.232,0.996L77.85,37.01c1.531,1.705,1.531,4.277-0.002,5.982	l-29.62,33.012C47.661,76.637,46.848,77,45.996,77c-0.851,0-1.665-0.363-2.232-0.996l-13.5-15.045c-1.026-1.142-1.026-2.865,0-4.008	l12.647-14.094c1.461-1.629,1.46-4.086-0.002-5.716L30.264,23.048c-1.026-1.142-1.026-2.865,0-4.008l13.5-15.045	C44.331,3.363,45.145,3,45.996,3 M45.996,2c-1.137,0-2.219,0.482-2.977,1.328l-13.5,15.045c-1.365,1.52-1.365,3.824,0,5.344	l12.645,14.092c1.121,1.25,1.121,3.133,0.002,4.381L29.52,56.283c-1.365,1.52-1.365,3.824,0,5.344l13.5,15.045	C43.778,77.518,44.86,78,45.996,78s2.219-0.482,2.977-1.328L78.592,43.66c1.875-2.086,1.877-5.23,0.002-7.318L48.973,3.328	C48.215,2.482,47.133,2,45.996,2L45.996,2z"/><path fill="#ffb5d2" d="M64,57.396c-0.992,0-1.942-0.424-2.605-1.162L49.871,43.392v-0.015l-0.146-0.147	c-1.643-1.833-1.643-4.626,0.017-6.477l11.652-12.986c0.663-0.738,1.613-1.162,2.605-1.162s1.942,0.424,2.605,1.162l11.651,12.984	c1.659,1.853,1.66,4.646,0.001,6.496L66.605,56.233C65.942,56.972,64.992,57.396,64,57.396z"/><path fill="#ea4c89" d="M64,23.104c0.851,0,1.665,0.363,2.233,0.996l11.651,12.984c1.489,1.662,1.49,4.168,0.002,5.829	L66.234,55.899c-0.569,0.633-1.383,0.996-2.234,0.996s-1.665-0.363-2.233-0.996l-11.397-12.7v-0.001l-0.255-0.285	c-1.489-1.661-1.489-4.166,0-5.827L61.767,24.1C62.335,23.468,63.149,23.104,64,23.104 M64,22.104c-1.136,0-2.219,0.483-2.978,1.328	L49.37,36.419c-1.83,2.042-1.83,5.12,0,7.162c0.001,0.001,0.001,0.001,0.001,0.002l11.651,12.984	c0.759,0.845,1.842,1.328,2.978,1.328s2.219-0.483,2.978-1.328L78.63,43.581c1.83-2.042,1.83-5.12-0.001-7.164L66.978,23.433	C66.219,22.588,65.136,22.104,64,22.104L64,22.104z"/></svg>